PathFileType	4	(X/Y/Z)	Walk3.trc
DataRate	CameraRate	NumFrames	NumMarkers	Units	OrigDataRate	OrigDataStartFrame	OrigNumFrames
200.000000	200.000000	4	58	mm	200.000000	377	499
Frame#	Times		LFHD		RFHD		RASI		RACR1		RUA1		RElbow		RFA1		RCAR		LACR1		LUA1		RTH3		RTH2		LLFC		LTB3		LTB2		LMT1		LMT5		LCAR		LTH3		RBHD		RWRU		RLFC		RTB2		LWRR		LASI		LTH2		C7		LElbow		RTH1		RTB4		RMT1		RBack		CLAV		LFA1		RTB3		RTB1		STRN		RToe		LTB1		RWRR		LTB4		LPSI		LTH4		LTH1		LElbowM		LWRU		RPSI		RMMAL		RLMAL		LToe		RTH4		LBHD		LCAL		RMT5		RCAL		T10		LLMAL		LMMAL
			X1	Y1	Z1	X2	Y2	Z2	X3	Y3	Z3	X4	Y4	Z4	X5	Y5	Z5	X6	Y6	Z6	X7	Y7	Z7	X8	Y8	Z8	X9	Y9	Z9	X10	Y10	Z10	X11	Y11	Z11	X12	Y12	Z12	X13	Y13	Z13	X14	Y14	Z14	X15	Y15	Z15	X16	Y16	Z16	X17	Y17	Z17	X18	Y18	Z18	X19	Y19	Z19	X20	Y20	Z20	X21	Y21	Z21	X22	Y22	Z22	X23	Y23	Z23	X24	Y24	Z24	X25	Y25	Z25	X26	Y26	Z26	X27	Y27	Z27	X28	Y28	Z28	X29	Y29	Z29	X30	Y30	Z30	X31	Y31	Z31	X32	Y32	Z32	X33	Y33	Z33	X34	Y34	Z34	X35	Y35	Z35	X36	Y36	Z36	X37	Y37	Z37	X38	Y38	Z38	X39	Y39	Z39	X40	Y40	Z40	X41	Y41	Z41	X42	Y42	Z42	X43	Y43	Z43	X44	Y44	Z44	X45	Y45	Z45	X46	Y46	Z46	X47	Y47	Z47	X48	Y48	Z48	X49	Y49	Z49	X50	Y50	Z50	X51	Y51	Z51	X52	Y52	Z52	X53	Y53	Z53	X54	Y54	Z54	X55	Y55	Z55	X56	Y56	Z56	X57	Y57	Z57	X58	Y58	Z58

377	1.885	543.75	1586.7	-33.885	537.69	1584.4	60.544	539.82	965.38	159.36	438.62	1367.7	157.38	434.56	1190.3	259.31	390.92	1069.4	294.46	440.41	929.25	314.58	575.13	821.49	339.23	423.23	1368.6	-154.13	384.93	1188.2	-244.98	377.17	579.75	176.24	457.55	646.31	178.75	595.71	484.62	-127.8	706.56	191.46	-72.766	670.99	275.05	-121.68	813.27	72.933	-43.885	786.81	50.433	-113.15	362.2	765.23	-298.51	549.35	590.71	-159.65	382.99	1537.1	66.921	500.17	835.48	320.63	344.57	497.06	154.55	297.37	260.28	131.37	366.2	812.95	-255.91	544.33	950.54	-134.46	564.45	695.05	-174.28	354.85	1406	11.405	330.66	1068.6	-264.33	434.08	734.52	226.05	321.36	253.65	73.507	345.41	33.508	39.249	311.33	1310.9	121.73	493.86	1331.3	0.071674	310.08	935.04	-284.66	296.06	172.01	73.948	345.72	337.59	79.468	556.71	1227.7	2.2771	412.58	27.147	72.688	683.91	361.86	-61.087	555.59	866.63	284.94	694.56	275.9	-65.273	296.36	949.72	-38.228	512.64	666.45	-178.33	476.66	738.69	-206.42	307.03	1046.6	-187.17	309.64	818.02	-298.88	295.47	958.51	50.656	249.47	74.582	11.666	232	69.328	92.814	871.84	92.221	-75.375	403.23	656.79	198.51	396.25	1533	-73.748	639.46	26.988	-61.064	311.52	25.878	114.66	166.59	42.833	56.531	286.51	1139.1	10.069	690.21	73.401	-101.39	707.79	81.325	-18.538
378	1.89	549.02	1585.8	-34.589	542.93	1583.6	59.84	545.18	964.67	159.07	443.85	1366.9	156.72	440.2	1189.6	258.68	396.84	1068.6	293.91	446.78	928.65	314.07	581.92	821.39	338.57	428.73	1367.7	-154.81	390.02	1187.2	-245.52	381	579.46	175.87	461.74	645.62	178.32	601.23	483.55	-128.35	717.26	192.34	-72.57	680.44	275.34	-121.68	826.18	75.55	-42.738	800.8	52.429	-112.28	365.42	764.23	-299.42	554.95	589.57	-160.57	388.26	1536.1	66.185	506.86	835.09	320.08	347.87	496.96	154.22	298.88	260.5	131.14	370.05	811.87	-256.78	550.1	949.71	-134.82	570.25	694.08	-174.35	360.15	1405	10.651	335.59	1067.6	-264.57	438.8	733.89	225.76	323.02	253.59	73.346	345.51	33.54	39.192	316.62	1310	121.03	499.27	1330.4	-0.50262	314.29	934.33	-284.95	297.09	172.16	73.755	348	337.36	79.304	562.19	1226.9	1.8197	412.69	26.987	72.926	691.13	362.35	-60.872	562.13	866.43	284.29	703.51	276.57	-65.076	302.04	948.67	-38.822	518.43	665.49	-179.22	482.67	737.97	-206.99	312.54	1045.6	-187.25	313.16	817.33	-299.33	301.03	957.54	49.992	249.9	75.056	11.454	232.26	69.958	92.549	884.83	95.781	-73.563	407.49	656.3	198.2	401.57	1532	-74.467	653.32	26.368	-61.487	311.49	25.938	114.49	166.75	43.821	56.203	291.99	1138.1	9.388	703.58	73.778	-101.35	720.28	82.116	-18.424
379	1.895	554.3	1585	-35.308	548.17	1582.8	59.12	550.54	964.01	158.82	449.06	1366.1	156.04	445.78	1188.9	258.04	402.71	1067.8	293.34	453.08	928.05	313.53	588.63	821.25	337.88	434.25	1366.7	-155.52	395.19	1186.3	-246.08	384.94	579.16	175.48	466.03	644.93	177.88	606.86	482.53	-128.87	727.46	193.13	-72.361	689.57	275.59	-121.67	838.31	77.944	-41.613	813.96	54.327	-111.43	368.75	763.21	-300.31	560.64	588.48	-161.43	393.53	1535.2	65.422	513.48	834.68	319.52	351.3	496.86	153.88	300.5	260.72	130.91	373.99	810.78	-257.64	555.93	948.89	-135.14	576.11	693.15	-174.44	365.45	1404.1	9.8623	340.62	1066.7	-264.85	443.61	733.25	225.44	324.73	253.53	73.176	345.6	33.577	39.138	321.91	1309.1	120.29	504.69	1329.6	-1.1037	318.61	933.59	-285.28	298.15	172.32	73.567	350.36	337.11	79.117	567.68	1226.1	1.3348	412.79	26.828	73.16	698.18	362.72	-60.63	568.59	866.17	283.6	712.12	277.15	-64.857	307.75	947.62	-39.467	524.29	664.55	-180.1	488.71	737.25	-207.56	318.1	1044.5	-187.39	316.8	816.62	-299.8	306.61	956.58	49.277	250.33	75.556	11.27	232.54	70.619	92.321	897.06	99.043	-71.776	411.86	655.81	197.87	406.9	1531	-75.209	666.38	25.849	-61.94	311.48	26.007	114.34	166.9	44.857	55.933	297.5	1137.1	8.6775	716.24	74.162	-101.31	732.06	82.851	-18.317
380	1.9	559.57	1584.1	-36.042	553.4	1582	58.385	555.92	963.39	158.61	454.26	1365.3	155.34	451.31	1188.1	257.39	408.55	1067.1	292.72	459.32	927.44	312.96	595.25	821.07	337.16	439.79	1365.8	-156.26	400.46	1185.3	-246.68	388.99	578.84	175.09	470.42	644.23	177.42	612.61	481.57	-129.35	737.14	193.81	-72.143	698.35	275.8	-121.65	849.67	80.061	-40.531	826.27	56.074	-110.64	372.21	762.17	-301.19	566.43	587.45	-162.23	398.79	1534.2	64.633	520	834.24	318.94	354.85	496.74	153.53	302.21	260.95	130.69	378.04	809.67	-258.49	561.83	948.07	-135.42	582.02	692.28	-174.54	370.76	1403.1	9.0397	345.73	1065.6	-265.16	448.51	732.6	225.1	326.5	253.48	72.995	345.68	33.622	39.089	327.19	1308.1	119.51	510.11	1328.8	-1.7321	323.05	932.83	-285.63	299.26	172.49	73.385	352.8	336.86	78.904	573.17	1225.3	0.82302	412.9	26.67	73.39	705.05	362.98	-60.363	574.95	865.86	282.88	720.38	277.61	-64.622	313.5	946.57	-40.166	530.22	663.65	-180.94	494.78	736.54	-208.13	323.7	1043.4	-187.58	320.57	815.89	-300.29	312.23	955.61	48.511	250.75	76.082	11.117	232.85	71.313	92.136	908.51	101.94	-70.041	416.33	655.31	197.53	412.23	1530	-75.976	678.61	25.402	-62.422	311.48	26.083	114.2	167.06	45.942	55.726	303.03	1136.1	7.9385	728.17	74.514	-101.28	743.09	83.489	-18.22
